<?xml version="1.0" encoding="iso-8859-1"?>
<svg id="Capa_1" enable-background="new 0 0 842 853" height="853" viewBox="0 0 842 853" width="842" xmlns="http://www.w3.org/2000/svg">
<g>
    <path d="M753,112C662.45,76.7,334.23,63.65,333.68,259.49,237.92,320.8,174.51,420.79,174.51,527.67c0,129.22,104.74,233.91,234,233.91s234-104.74,234-233.91A233.93,233.93,0,0,0,491.82,309c-16.94-6.55-53.74-18.1-83.13-15.62-41.93,26.66-93.06,81.47-117.24,136.06,35.94-43.13,92.12-62,141.88-53.91A154.17,154.17,0,0,1,562.54,527.63c0,85.15-69.31,154.12-154.46,154.12a153.66,153.66,0,0,1-117.24-54c-41.5-48.86-52.2-101.83-43.64-153.6C276.77,292.65,492,189.4,652,149.74c-52.2,27.64-146.33,73-212.22,122.5C631.9,346.43,663,184.44,753,112Z" fill="#fff"/>
</g>
</svg>
